<?xml version="1.0" standalone="no"?>
<!DOCTYPE svg PUBLIC "-//W3C//DTD SVG 20010904//EN"
 "http://www.w3.org/TR/2001/REC-SVG-20010904/DTD/svg10.dtd">
<svg version="1.0" xmlns="http://www.w3.org/2000/svg"
 width="939.000000pt" height="1280.000000pt" viewBox="0 0 939.000000 1280.000000"
 preserveAspectRatio="xMidYMid meet">
<g transform="translate(0.000000,1280.000000) scale(0.100000,-0.100000)"
fill="#000000" stroke="none">
<path d="M4632 12753 c-314 -315 -530 -1366 -583 -2838 l-11 -310 -32 -30
c-17 -16 -133 -116 -256 -222 -124 -105 -256 -220 -294 -255 l-68 -63 -9 -100
c-5 -55 -21 -215 -35 -355 -14 -140 -52 -531 -84 -869 -39 -401 -64 -619 -72
-629 -7 -8 -404 -362 -883 -786 -478 -424 -991 -878 -1140 -1009 -148 -132
-405 -359 -570 -506 -164 -146 -353 -314 -420 -372 -66 -58 -131 -118 -145
-133 l-25 -28 -3 -371 -3 -371 58 -59 c32 -32 119 -111 193 -175 74 -65 169
-149 210 -188 76 -73 191 -154 218 -154 16 0 1896 -627 1925 -642 14 -7 17
-22 17 -81 l0 -72 -132 -128 c-73 -71 -198 -185 -278 -253 -80 -68 -161 -139
-181 -157 -20 -17 -81 -70 -135 -117 -54 -47 -138 -123 -186 -170 l-88 -85 -5
-220 c-2 -121 -7 -308 -10 -415 -7 -221 -3 -238 55 -252 31 -8 332 -104 635
-203 55 -18 116 -36 135 -40 19 -4 49 -15 65 -23 17 -9 35 -16 40 -17 25 -3
74 -18 117 -37 l47 -21 43 27 c114 71 172 120 457 386 91 86 227 209 302 275
74 66 189 168 256 227 l120 106 8 269 c4 147 10 284 14 305 l6 36 147 -84 c82
-46 152 -84 157 -84 5 0 87 38 182 85 95 47 177 85 181 85 4 0 8 -153 8 -341
l0 -341 58 -60 58 -60 57 61 57 60 0 340 c0 223 3 341 10 341 6 0 87 -38 180
-85 93 -47 175 -85 182 -85 7 0 78 38 158 84 80 46 148 81 152 78 4 -4 12
-142 18 -307 9 -262 13 -302 28 -316 9 -9 220 -194 468 -410 248 -217 495
-432 548 -479 54 -47 105 -88 114 -92 11 -5 219 58 567 171 l550 179 -3 154
c-15 646 -18 696 -40 715 -12 10 -235 214 -497 453 l-476 435 3 80 3 80 395
134 c217 73 671 226 1009 338 l613 206 299 264 299 265 0 379 0 379 -27 29
c-16 16 -325 291 -688 612 -363 321 -779 689 -925 819 -146 129 -555 491 -908
804 -355 315 -645 579 -647 590 -3 12 -28 260 -55 551 -28 292 -64 665 -80
830 -17 165 -35 350 -41 410 -7 73 -17 120 -29 139 -21 34 -129 131 -405 365
-111 93 -207 182 -214 197 -13 30 -20 139 -41 662 -6 151 -15 308 -20 350 -5
43 -14 129 -20 192 -29 302 -55 499 -101 770 -53 315 -80 428 -158 671 -58
177 -110 290 -182 395 -51 73 -139 164 -159 164 -6 0 -32 -21 -58 -47z"/>
</g>
</svg>
