<?xml version="1.0" encoding="UTF-8" standalone="no"?>
<!DOCTYPE svg PUBLIC "-//W3C//DTD SVG 20010904//EN"
              "http://www.w3.org/TR/2001/REC-SVG-20010904/DTD/svg10.dtd">

<svg xmlns="http://www.w3.org/2000/svg"
     width="0.0722234in" height="0.177781in"
     viewBox="0 0 26 64">
  <path id="Selection"
        fill="none" stroke="black" stroke-width="1"
        d="M 20.42,22.00
           C 22.35,24.73 25.56,28.54 25.56,32.00
             25.56,35.46 22.35,39.27 20.42,42.00
             16.00,48.27 9.53,60.61 3.00,64.00
             -2.12,55.01 3.99,55.94 3.99,50.00
             3.99,46.05 0.77,46.00 0.92,39.00
             0.92,39.00 0.92,22.00 0.92,22.00
             1.46,19.36 3.51,17.16 3.89,15.00
             4.52,11.34 1.38,9.16 0.97,6.00
             0.66,3.56 1.87,1.98 3.00,0.00
             9.53,3.39 16.00,15.73 20.42,22.00 Z" />
</svg>
