<?xml version="1.0" encoding="UTF-8" standalone="no"?>
<!DOCTYPE svg PUBLIC "-//W3C//DTD SVG 20010904//EN"
              "http://www.w3.org/TR/2001/REC-SVG-20010904/DTD/svg10.dtd">

<svg xmlns="http://www.w3.org/2000/svg"
     width="0.122224in" height="0.177781in"
     viewBox="0 0 44 64">
  <path id="Selection"
        fill="none" stroke="black" stroke-width="1"
        d="M 21.07,1.60
           C 21.07,1.60 23.60,10.00 23.60,10.00
             23.60,10.00 27.00,28.00 27.00,28.00
             30.15,28.00 43.41,27.11 43.41,32.00
             43.41,36.89 30.15,36.00 27.00,36.00
             27.00,36.00 23.60,54.00 23.60,54.00
             23.60,54.00 21.07,62.40 21.07,62.40
             21.07,62.40 15.00,64.00 15.00,64.00
             15.00,64.00 17.00,36.00 17.00,36.00
             14.35,36.01 10.76,35.65 8.70,37.60
             4.61,41.47 8.26,45.34 0.00,46.00
             0.00,46.00 1.66,32.00 1.66,32.00
             1.66,32.00 0.00,18.00 0.00,18.00
             8.26,18.66 4.61,22.53 8.70,26.40
             10.76,28.35 14.35,27.99 17.00,28.00
             17.00,28.00 15.00,0.00 15.00,0.00
             15.00,0.00 21.07,1.60 21.07,1.60 Z" />
</svg>
