<?xml version="1.0" encoding="UTF-8" standalone="no"?>
<!DOCTYPE svg PUBLIC "-//W3C//DTD SVG 20010904//EN"
              "http://www.w3.org/TR/2001/REC-SVG-20010904/DTD/svg10.dtd">

<svg xmlns="http://www.w3.org/2000/svg"
     width="0.172225in" height="0.177781in"
     viewBox="0 0 62 64">
  <path id="Selection"
        fill="none" stroke="black" stroke-width="1"
        d="M 17.00,1.06
           C 19.71,2.25 32.75,14.88 36.00,17.71
             38.09,19.55 41.43,22.48 44.00,23.41
             47.82,24.77 59.56,23.21 61.26,31.00
             62.09,34.82 58.13,37.77 55.00,38.85
             49.45,40.78 46.19,38.68 41.00,42.23
             41.00,42.23 24.00,57.17 24.00,57.17
             19.50,61.21 18.39,64.04 12.00,63.00
             12.00,63.00 16.00,40.00 16.00,40.00
             9.46,40.54 10.07,42.15 6.41,46.87
             5.29,48.31 3.57,50.39 1.56,48.93
             -0.35,47.54 0.00,43.13 0.00,41.00
             0.00,41.00 0.00,21.00 0.00,21.00
             0.04,19.06 -0.11,15.51 2.21,14.73
             4.72,13.89 6.53,17.39 7.69,19.00
             10.60,23.03 11.06,23.59 16.00,24.00
             16.00,24.00 12.00,1.06 12.00,1.06
             13.97,0.68 14.99,0.27 17.00,1.06 Z" />
</svg>
