<?xml version="1.0" encoding="UTF-8" standalone="no"?>
<!DOCTYPE svg PUBLIC "-//W3C//DTD SVG 20010904//EN"
              "http://www.w3.org/TR/2001/REC-SVG-20010904/DTD/svg10.dtd">

<svg xmlns="http://www.w3.org/2000/svg"
     width="0.111113in" height="0.177781in"
     viewBox="0 0 40 64">
  <path id="Selection"
        fill="none" stroke="black" stroke-width="1"
        d="M 19.40,1.02
           C 21.18,2.43 21.02,5.89 21.28,8.00
             21.68,11.15 22.97,24.89 24.17,26.69
             26.10,29.58 36.09,29.30 40.00,30.00
             40.00,30.00 40.00,34.00 40.00,34.00
             36.09,34.70 26.10,34.42 24.17,37.31
             22.97,39.11 21.68,52.85 21.28,56.00
             21.02,58.11 21.18,61.57 19.40,62.98
             17.99,64.09 15.69,63.94 14.00,64.00
             14.00,64.00 16.00,35.00 16.00,35.00
             8.40,35.01 5.31,34.21 5.00,43.00
             5.00,43.00 0.00,43.00 0.00,43.00
             0.00,43.00 0.00,21.00 0.00,21.00
             0.00,21.00 5.00,21.00 5.00,21.00
             5.31,29.79 8.40,28.99 16.00,29.00
             16.00,29.00 14.00,0.00 14.00,0.00
             15.69,0.06 17.99,-0.09 19.40,1.02 Z" />
</svg>
